<?xml version="1.0" encoding="UTF-8" standalone="no"?>
<!DOCTYPE svg PUBLIC "-//W3C//DTD SVG 1.1//EN" "http://www.w3.org/Graphics/SVG/1.1/DTD/svg11.dtd">
<svg width="100%" height="100%" viewBox="0 0 28 28" version="1.1" xmlns="http://www.w3.org/2000/svg" xmlns:xlink="http://www.w3.org/1999/xlink" xml:space="preserve" xmlns:serif="http://www.serif.com/" style="fill-rule:evenodd;clip-rule:evenodd;stroke-linecap:round;stroke-linejoin:round;">
    <g transform="matrix(1,0,0,1,-786.142,-436)">
        <g transform="matrix(0.875,0,0,0.875,101.017,55.375)">
            <circle cx="799" cy="451" r="16" style="fill:rgb(194,166,51);"/>
        </g>
        <g transform="matrix(1,0,0,1,788.142,438.142)">
            <path d="M7,12.5L10,15.5L17,8.5" style="fill:none;fill-rule:nonzero;stroke:white;stroke-opacity:0.93;stroke-width:1.5px;"/>
        </g>
        <g transform="matrix(1,0,0,1,788.142,438.142)">
            <path d="M12,22C17.523,22 22,17.523 22,12C22,6.477 17.523,2 12,2C6.477,2 2,6.477 2,12C2,17.523 6.477,22 12,22Z" style="fill:none;fill-rule:nonzero;stroke:white;stroke-opacity:0.55;stroke-width:1.5px;"/>
        </g>
    </g>
</svg>
